<?xml version="1.0" encoding="UTF-8"?>
<svg fill="#1447e6" id="Layer_1" xmlns="http://www.w3.org/2000/svg" version="1.1" viewBox="0 0 288.8 342.1">
  <defs>
  </defs>
  <path class="st0" d="M100.7,223.7V87.6h28l-32.2-43.8L64.3,0l-32.2,43.8L0,87.6h28.3v44.2l-.3-.4v9.2c0,15.2,3.2,28.9,9.7,41.1,6.5,12.2,15.6,24.8,27.4,31.7,10.6,6.2,22.4,9.7,35.5,10.3"/>
  <path class="st0" d="M211.9,98.2c14.9,0,28.2,3.5,40,10.5,11.7,7,20.8,16.6,27.3,28.7,6.5,12.2,9.7,26,9.7,41.5v25.4h-81.5v-106c1.5,0,3.1-.1,4.6-.1"/>
  <path class="st0" d="M194.8,161.9c-1.5,11.4-4.8,22-9.9,31.7-7.2,13.6-17.4,24.2-30.5,32-11.8,6.9-24.9,10.8-39.5,11.5v104.8c1.5,0,3,.1,4.5.1,14.7,0,27.7-3.4,39.2-10.3,11.5-6.8,20.4-16.2,26.7-28.2,6.3-12,9.5-25.5,9.5-40.7v-101h0Z"/>
  <path class="st0" d="M194.9,148.1v-48.8h-80v124.3c14.5-.7,27.7-4.6,39.5-11.5,13.2-7.8,23.3-18.4,30.6-32,5.2-9.8,8.5-20.5,10-32"/>
</svg>